<svg xmlns="http://www.w3.org/2000/svg" viewBox="0 0 720 440" width="720" height="440" font-family="'Space Grotesk', Helvetica, Arial, sans-serif" font-size="12" fill="#000">
<rect width="720" height="440" fill="#fff"/>
<rect x="350" y="30" width="280" height="165" fill="#F4F4F4"/><text x="358" y="44" font-family="'Space Mono', Menlo, Consolas, monospace" font-size="10" fill="#767676">The empty quadrant, until now</text><rect x="70" y="30" width="560" height="330" fill="none" stroke="#000" stroke-width="1"/><line x1="350" y1="30" x2="350" y2="360" stroke="#E5E5E5"/><line x1="70" y1="195" x2="630" y2="195" stroke="#E5E5E5"/><text x="350" y="394" font-family="'Space Mono', Menlo, Consolas, monospace" font-size="10" text-anchor="middle">Blocks the action before it runs →</text><text x="-195" y="26" font-family="'Space Mono', Menlo, Consolas, monospace" font-size="10" text-anchor="middle" transform="rotate(-90)">Reports beyond the operator →</text><text x="70" y="376" font-family="'Space Mono', Menlo, Consolas, monospace" font-size="10" text-anchor="middle">no</text><text x="62" y="364" font-family="'Space Mono', Menlo, Consolas, monospace" font-size="10" text-anchor="end">no</text><text x="350" y="376" font-family="'Space Mono', Menlo, Consolas, monospace" font-size="10" text-anchor="middle">partly</text><text x="62" y="199" font-family="'Space Mono', Menlo, Consolas, monospace" font-size="10" text-anchor="end">partly</text><text x="630" y="376" font-family="'Space Mono', Menlo, Consolas, monospace" font-size="10" text-anchor="middle">yes</text><text x="62" y="34" font-family="'Space Mono', Menlo, Consolas, monospace" font-size="10" text-anchor="end">yes</text><circle cx="608" cy="338" r="5" fill="#000"/><text x="602" y="352" font-size="11" text-anchor="end" >Hook vendors (Zenity, HiddenLayer, Cisco)</text><circle cx="608" cy="338" r="5" fill="#000"/><text x="602" y="366" font-size="11" text-anchor="end" >Platform policy (Managed Agents, AgentCore)</text><circle cx="608" cy="338" r="5" fill="#000"/><text x="602" y="380" font-size="11" text-anchor="end" >Guard agents (Progent, AgentSpec, ShieldAgent)</text><circle cx="608" cy="338" r="5" fill="#000"/><text x="602" y="394" font-size="11" text-anchor="end" >AI-control protocols (trusted monitoring)</text><circle cx="92" cy="338" r="5" fill="#000"/><text x="100" y="330" font-size="11"  >Identity handshakes (A2A, Web Bot Auth)</text><circle cx="92" cy="338" r="5" fill="#000"/><text x="100" y="344" font-size="11"  >Observability (Datadog, Langfuse)</text><circle cx="92" cy="338" r="5" fill="#000"/><text x="100" y="358" font-size="11"  >Kernel observer (AgentSight)</text><circle cx="92" cy="195" r="5" fill="#000"/><text x="100" y="199" font-size="11"  >Gossip / reputation research</text><circle cx="92" cy="52" r="5" fill="#000"/><text x="100" y="56" font-size="11"  >Public thread (AI Village)</text><circle cx="92" cy="52" r="5" fill="#000"/><text x="100" y="70" font-size="11"  >Vigilia's post-push tripwire (2026-09-13)</text><circle cx="92" cy="195" r="5" fill="#000"/><text x="100" y="213" font-size="11"  >Fleet measurement (Anthropic, 2026-09-17)</text><circle cx="608" cy="52" r="7" fill="#9E2B25"/><text x="602" y="42" font-size="11" text-anchor="end" fill="#9E2B25" font-weight="600">Sentinel (this paper)</text>
</svg>
